# xmcd
#
# Track frame offsets:
#	150
#	15750
#	35132
#	45245
#	58907
#	82575
#	97795
#	122452
#	141220
#	164730
#
# Disc length: 2448 seconds
#
# Revision: 4
# Processed by: cddbd v1.5.1PL0 Copyright (c) Steve Scherf et al.
# Submitted via: audiograbber 1.83.01
#
DISCID=6f098e0a
DTITLE=Various Artist - Blues Harp Greats
DYEAR=1997
DGENRE=Blues
TTITLE0=James Cotton, Paul Butterfield, Billy Boy Arnold and Elvin Bishop - Three
TTITLE0=Harp Boogie (Instrumental)
TTITLE1=Carey Bell - (I Shoulda Did) What My Mama Told Me
TTITLE2=Treat Her Right - Come Back Baby
TTITLE3=James Montgomery Band - The Oven Is On (Instrumental)
TTITLE4=Magic Dick and Jay Geils - The Jumpin' Blues
TTITLE5=Annie Raines and Paul Rishell - Ol' Heartbreak
TTITLE6=Butler Twins - Hey Baby (Don't You Know Your Daddy Loves You So)
TTITLE7=Mark Hummel - Rockin' At The Riverside (Instrumental)
TTITLE8=Mojo Buford - Pickin' Rags
TTITLE9=Charlie Sayles - Lamp Post
EXTD=
EXTT0=
EXTT1=
EXTT2=
EXTT3=
EXTT4=
EXTT5=
EXTT6=
EXTT7=
EXTT8=
EXTT9=
PLAYORDER=
